<?xml version="1.0" encoding="utf-8"?>
<!-- Generator: Adobe Illustrator 19.1.1, SVG Export Plug-In . SVG Version: 6.00 Build 0)  -->
<svg version="1.1" id="Layer_1" xmlns="http://www.w3.org/2000/svg" xmlns:xlink="http://www.w3.org/1999/xlink" x="0px" y="0px"
	 width="50.2px" height="40.8px" viewBox="0 0 50.2 40.8" style="enable-background:new 0 0 50.2 40.8;" xml:space="preserve">
<style type="text/css">
	.st0{clip-path:url(#SVGID_2_);fill:#31485E;}
</style>
<g>
	<defs>
		<rect id="SVGID_1_" y="0" width="50.2" height="40.8"/>
	</defs>
	<clipPath id="SVGID_2_">
		<use xlink:href="#SVGID_1_"  style="overflow:visible;"/>
	</clipPath>
	<path class="st0" d="M50.2,4.8c-1.8,0.8-3.8,1.4-5.9,1.6c2.1-1.3,3.8-3.3,4.5-5.7c-2,1.2-4.2,2-6.5,2.5c-1.9-2-4.6-3.3-7.5-3.3
		c-5.7,0-10.3,4.6-10.3,10.3c0,0.8,0.1,1.6,0.3,2.3C16.2,12.2,8.6,8.1,3.5,1.9C2.6,3.4,2.1,5.2,2.1,7.1c0,3.6,1.8,6.7,4.6,8.6
		C5,15.6,3.4,15.1,2,14.4v0.1c0,5,3.6,9.2,8.3,10.1C9.4,24.8,8.5,25,7.6,25c-0.7,0-1.3-0.1-1.9-0.2c1.3,4.1,5.1,7.1,9.6,7.2
		c-3.5,2.8-8,4.4-12.8,4.4c-0.8,0-1.6-0.1-2.5-0.1c4.6,2.9,10,4.6,15.8,4.6c19,0,29.3-15.7,29.3-29.3c0-0.4,0-0.9,0-1.3
		C47.1,8.7,48.9,6.9,50.2,4.8"/>
</g>
</svg>
