<?xml version="1.0" encoding="utf-8"?><svg width="105" height="126" viewBox="0 0 105 126" xmlns="http://www.w3.org/2000/svg" xmlns:xlink="http://www.w3.org/1999/xlink"><svg id="facebook" width="43.5" height="74.6" viewBox="-5 -5 43.5 74.6" xmlns="http://www.w3.org/2000/svg"><style>.ast0{clip-path:url(#aSVGID_2_);fill:#31485e}</style><defs><path id="aSVGID_1_" d="M0 0h33.5v64.6H0z"/></defs><clipPath id="aSVGID_2_"><use xlink:href="#aSVGID_1_" overflow="visible"/></clipPath><path class="ast0" d="M31.7 35.1l1.5-11.5H21.8v-7.3c0-3.3.9-5.6 5.7-5.6h6.1V.5c-1-.1-4.7-.5-8.9-.5C15.9 0 9.9 5.4 9.9 15.2v8.5H0v11.5h9.9v29.5h11.9V35.1h9.9z"/></svg><svg id="twitter" width="60.2" height="50.8" viewBox="-5 -5 60.2 50.8" x="44" y="75" xmlns="http://www.w3.org/2000/svg"><style>.bst0{clip-path:url(#bSVGID_2_);fill:#31485e}</style><defs><path id="bSVGID_1_" d="M0 0h50.2v40.8H0z"/></defs><clipPath id="bSVGID_2_"><use xlink:href="#bSVGID_1_" overflow="visible"/></clipPath><path class="bst0" d="M50.2 4.8c-1.8.8-3.8 1.4-5.9 1.6 2.1-1.3 3.8-3.3 4.5-5.7-2 1.2-4.2 2-6.5 2.5-1.9-2-4.6-3.3-7.5-3.3-5.7 0-10.3 4.6-10.3 10.3 0 .8.1 1.6.3 2.3-8.6-.3-16.2-4.4-21.3-10.6-.9 1.5-1.4 3.3-1.4 5.2 0 3.6 1.8 6.7 4.6 8.6-1.7-.1-3.3-.6-4.7-1.3v.1c0 5 3.6 9.2 8.3 10.1-.9.2-1.8.4-2.7.4-.7 0-1.3-.1-1.9-.2 1.3 4.1 5.1 7.1 9.6 7.2-3.5 2.8-8 4.4-12.8 4.4-.8 0-1.6-.1-2.5-.1 4.6 2.9 10 4.6 15.8 4.6 19 0 29.3-15.7 29.3-29.3v-1.3c2-1.6 3.8-3.4 5.1-5.5"/></svg></svg>