<svg id="Layer_1" xmlns="http://www.w3.org/2000/svg" xmlns:xlink="http://www.w3.org/1999/xlink" width="50.2" height="40.8"><style>.st0{clip-path:url(#SVGID_2_);fill:#31485e}</style><defs><path id="SVGID_1_" d="M0 0h50.2v40.8H0z"/></defs><clipPath id="SVGID_2_"><use xlink:href="#SVGID_1_" overflow="visible"/></clipPath><path class="st0" d="M50.2 4.8c-1.8.8-3.8 1.4-5.9 1.6 2.1-1.3 3.8-3.3 4.5-5.7-2 1.2-4.2 2-6.5 2.5-1.9-2-4.6-3.3-7.5-3.3-5.7 0-10.3 4.6-10.3 10.3 0 .8.1 1.6.3 2.3-8.6-.3-16.2-4.4-21.3-10.6-.9 1.5-1.4 3.3-1.4 5.2 0 3.6 1.8 6.7 4.6 8.6-1.7-.1-3.3-.6-4.7-1.3v.1c0 5 3.6 9.2 8.3 10.1-.9.2-1.8.4-2.7.4-.7 0-1.3-.1-1.9-.2 1.3 4.1 5.1 7.1 9.6 7.2-3.5 2.8-8 4.4-12.8 4.4-.8 0-1.6-.1-2.5-.1 4.6 2.9 10 4.6 15.8 4.6 19 0 29.3-15.7 29.3-29.3v-1.3c2-1.6 3.8-3.4 5.1-5.5"/></svg>